<svg width="359.99999" height="359.9696" xmlns="http://www.w3.org/2000/svg">
<metadata id="metadata5032">image/svg+xml</metadata>
 <g>
  <title>Layer 1</title>
  <g id="layer1">
   <path fill="#ffffff" fill-rule="nonzero" id="path4642" d="m180,30.01041c-40.73362,0 -45.84008,0.25899 -61.83741,0.91733c-15.96445,0.7292 -26.846,3.22727 -36.38561,6.93669c-9.8635,3.83171 -18.26206,8.98306 -26.60017,17.32165c-8.33835,8.33859 -13.44169,16.69125 -17.27412,26.55409c-3.70877,9.54051 -6.25479,20.46653 -6.98302,36.43098c-0.73154,15.99732 -0.91968,21.10396 -0.91968,61.83716c0,40.73554 0.18808,45.83984 0.91968,61.83717c0.72919,15.96445 3.27425,26.84576 6.98302,36.38633c3.83243,9.86278 8.93577,18.21549 17.27412,26.55403c8.33811,8.33859 16.73667,13.48525 26.60017,17.3193c9.53961,3.70708 20.42116,6.25455 36.38561,6.98374c15.99733,0.7292 21.10379,0.87029 61.83741,0.87029c40.73362,0 45.83984,-0.23496 61.8374,-0.87029c15.96422,-0.72919 26.89185,-3.27666 36.43147,-6.98374c9.8635,-3.83405 18.21621,-8.98071 26.55432,-17.3193c8.33835,-8.33854 13.44145,-16.69125 17.27388,-26.55403c3.70876,-9.54057 6.25503,-20.42188 6.98326,-36.38633c0.73154,-15.99733 0.91968,-21.10163 0.91968,-61.83717c0,-40.7332 -0.18808,-45.83984 -0.91968,-61.83716c-0.7292,-15.96445 -3.2745,-26.89047 -6.98326,-36.43098c-3.83243,-9.86284 -8.93553,-18.2155 -17.27388,-26.55409c-8.33811,-8.33859 -16.69082,-13.48994 -26.55432,-17.32165c-9.53962,-3.70942 -20.46725,-6.20749 -36.43147,-6.93669c-15.99732,-0.72919 -21.10378,-0.91733 -61.8374,-0.91733zm0,27.01275c40.04775,0 44.78087,0.23495 60.59684,0.87028c14.623,0.65865 22.60141,3.13785 27.88658,5.19137c7.00117,2.72149 11.98006,5.96281 17.22809,11.21061c5.24894,5.24779 8.48978,10.2274 11.20964,17.22754c2.05353,5.28542 4.52401,13.26413 5.19155,27.88544c0.71982,15.81622 0.87269,20.5512 0.87269,60.59757c0,40.04865 -0.16464,44.78369 -0.87269,60.59756c-0.66802,14.62366 -3.13802,22.55533 -5.19155,27.84074c-2.71986,7.00014 -5.9607,12.02211 -11.20964,17.27225c-5.24803,5.2478 -10.22692,8.48912 -17.22809,11.2106c-5.28517,2.04643 -13.26358,4.48099 -27.88658,5.14667c-15.81363,0.72913 -20.54555,0.87028 -60.59684,0.87028c-40.0513,0 -44.78322,-0.23495 -60.59684,-0.87028c-14.62301,-0.65865 -22.55557,-3.09321 -27.84074,-5.14667c-7.0011,-2.72148 -12.0259,-5.9628 -17.27394,-11.2106c-5.24773,-5.25014 -8.48863,-10.27211 -11.20964,-17.27225c-2.05352,-5.28541 -4.47792,-13.21708 -5.14546,-27.84074c-0.71982,-15.81387 -0.87269,-20.54891 -0.87269,-60.59756c0,-40.04637 0.16465,-44.78135 0.87269,-60.59757c0.66803,-14.62131 3.09194,-22.60002 5.14546,-27.88544c2.72101,-7.00014 5.96191,-11.97975 11.20964,-17.22754c5.24804,-5.2478 10.27284,-8.48912 17.27394,-11.21061c5.28517,-2.04643 13.21773,-4.52334 27.84074,-5.19137c15.81597,-0.72913 20.54909,-0.87028 60.59684,-0.87028zm80.07621,24.90046c-9.93951,0 -18.0092,8.06807 -18.0092,18.00848c0,9.94042 8.06969,18.00854 18.0092,18.00854c9.94066,0 18.00896,-8.06812 18.00896,-18.00854c0,-9.94041 -8.0683,-18.00848 -18.00896,-18.00848zm-80.07621,21.04051c-42.53614,0 -76.99809,34.50924 -76.99809,77.04418c0,42.53735 34.46195,76.99713 76.99809,76.99713c42.53614,0 77.04394,-34.45978 77.04394,-76.99713c0,-42.53494 -34.5078,-77.04418 -77.04394,-77.04418zm0,27.0598c27.61161,0 49.98438,22.37415 49.98438,49.98438c0,27.61257 -22.37277,49.98438 -49.98438,49.98438c-27.61161,0 -49.98444,-22.37181 -49.98444,-49.98438c0,-27.61023 22.37283,-49.98438 49.98444,-49.98438z"/>
  </g>
 </g>
</svg>