<svg id="Capa_1" enable-background="new 0 0 512 512" height="512" viewBox="0 0 512 512" width="512" xmlns="http://www.w3.org/2000/svg"><g><path d="m186 221c-24.814 0-45 20.186-45 45s20.186 45 45 45 45-20.186 45-45-20.186-45-45-45zm0 60c-8.271 0-15-6.728-15-15s6.729-15 15-15 15 6.728 15 15-6.729 15-15 15z"/><circle cx="246" cy="326" r="15"/><circle cx="86" cy="266" r="15"/><path d="m437.02 74.98c-48.353-48.351-112.64-74.98-181.02-74.98s-132.667 26.629-181.02 74.98c-48.351 48.353-74.98 112.64-74.98 181.02s26.629 132.667 74.98 181.02c48.353 48.351 112.64 74.98 181.02 74.98s132.667-26.629 181.02-74.98c48.351-48.353 74.98-112.64 74.98-181.02s-26.629-132.667-74.98-181.02zm44.81 172.67c-24.903 10.139-71.686 23.475-145.497 23.475-20.876 0-32.129-4.176-37.893-7.679-5.014-3.048-7.556-6.584-7.556-10.512 0-15.14 31.966-42.185 95.657-42.185 38.969 0 65.59-12.741 83.398-27.628 6.957 20.366 11.069 42.035 11.891 64.529zm-225.83-217.65c31.46 0 61.436 6.47 88.677 18.135-17.924 11.237-37.199 15.173-57.53 11.702-22.729-3.877-46.786 1.222-67.738 14.364-31.788 19.939-76.301 37.364-116.344 15.563 40.275-37.081 94.003-59.764 152.935-59.764zm-174.118 82.078c18.593 11.841 39.254 17.765 61.322 17.765 28.824-.001 60.042-10.089 92.146-30.228 14.696-9.22 31.294-12.844 46.748-10.206 33.026 5.641 64.733-3.277 92.33-25.815 14.634 9.041 28.165 19.701 40.34 31.734-22.372 19.357-54.718 36.767-94.991 29.625-29.797-5.282-59.964 1.114-84.934 18.017-33.579 22.731-93.413 46.316-190.635 34.161 8.908-23.84 21.722-45.789 37.674-65.053zm174.118 369.922c-45.547 0-87.981-13.556-123.504-36.827 32.53-7.918 71.435 2.571 89.061 8.405 7.754 2.566 15.771 3.849 23.68 3.849 7.982 0 15.851-1.308 23.217-3.92 36.737-13.036 76.104-10.781 106.262-5.28-34.524 21.398-75.199 33.773-118.716 33.773zm150.304-57.384c-34.396-9.216-92.938-18.879-147.884.617-8.41 2.984-18.155 2.938-27.438-.136-29.823-9.871-83.937-22.296-126.578-1.627-22.712-20.578-41.23-45.7-54.113-73.916 61.654-14.614 99.108 15.109 99.425 15.386 7.824 7.324 24.812 20.665 50.665 27.714 11.545 3.148 23.501 4.72 35.822 4.72 20.864 0 42.772-4.508 65.486-13.503 68.397-27.085 122.751-29.848 156.651-27.286-12.919 25.883-30.656 48.953-52.036 68.031zm64.07-97.032c-36.23-4.029-99.47-3.389-179.729 28.394-67.612 26.775-106.742-.13-120.428-12.94-5.084-4.759-21.02-15.491-44.943-22.047-26.93-7.379-56.269-7.234-85.641.313-6.255-20.684-9.633-42.606-9.633-65.304 0-17.087 1.918-33.733 5.528-49.745 21.403 2.89 41.236 4.179 59.578 4.178 75.367-.001 125.611-21.675 156.554-42.62 18.473-12.505 40.801-17.237 62.88-13.321 51.858 9.194 92.507-12.644 120.143-36.703 8.673 11.188 16.326 23.203 22.806 35.914-12.959 13.568-34.899 27.046-70.947 27.046-78.655 0-125.657 36.702-125.657 72.185 0 14.698 7.804 27.535 21.974 36.147 13.148 7.991 31.14 12.043 53.475 12.043 66.393 0 113.131-10.017 144.373-20.958-1.751 16.389-5.258 32.259-10.333 47.418z"/></g></svg>